<svg width="24" height="24" viewBox="0 0 24 24" fill="none" xmlns="http://www.w3.org/2000/svg">
<g clip-path="url(#clip0_5_2518)">
<path d="M17.6158 15.5152C19.0685 13.5332 19.7192 11.0759 19.4376 8.6349C19.156 6.19389 17.963 3.94918 16.0972 2.34987C14.2315 0.750556 11.8305 -0.0854205 9.37477 0.00918925C6.91901 0.103799 4.58952 1.12202 2.85237 2.86014C1.11521 4.59825 0.0984959 6.92809 0.00562815 9.38352C-0.0872396 11.839 0.750589 14.2389 2.3515 16.1032C3.9524 17.9676 6.19832 19.1588 8.63993 19.4386C11.0815 19.7183 13.5388 19.066 15.52 17.6122H15.5185C15.5635 17.6722 15.6115 17.7292 15.6655 17.7847L21.4415 23.5597C21.7228 23.8411 22.1044 23.9993 22.5024 23.9995C22.9003 23.9996 23.2821 23.8417 23.5636 23.5604C23.8451 23.2792 24.0033 22.8976 24.0034 22.4997C24.0036 22.1018 23.8456 21.7201 23.5643 21.4387L17.7884 15.6637C17.7347 15.6094 17.6771 15.5592 17.6158 15.5137V15.5152ZM18.0029 9.74917C18.0029 10.8326 17.7895 11.9054 17.3748 12.9063C16.9601 13.9072 16.3524 14.8167 15.5862 15.5828C14.8199 16.3489 13.9103 16.9566 12.9092 17.3712C11.9081 17.7858 10.8352 17.9992 9.75158 17.9992C8.668 17.9992 7.59503 17.7858 6.59393 17.3712C5.59283 16.9566 4.68321 16.3489 3.91701 15.5828C3.1508 14.8167 2.54301 13.9072 2.12834 12.9063C1.71367 11.9054 1.50025 10.8326 1.50025 9.74917C1.50025 7.56114 2.36958 5.46272 3.91701 3.91554C5.46443 2.36837 7.56319 1.49917 9.75158 1.49917C11.94 1.49917 14.0387 2.36837 15.5862 3.91554C17.1336 5.46272 18.0029 7.56114 18.0029 9.74917Z" fill="#333333"/>
</g>
<defs>
<clipPath id="clip0_5_2518">
<rect width="24.0039" height="24" fill="white"/>
</clipPath>
</defs>
</svg>
