<svg width="25" height="25" viewBox="0 0 25 25" fill="none" xmlns="http://www.w3.org/2000/svg">
<path d="M7.52441 11.3738L11.5244 2.37378C12.3201 2.37378 13.0831 2.68985 13.6457 3.25246C14.2083 3.81507 14.5244 4.57813 14.5244 5.37378V9.37378H20.1844C20.4743 9.3705 20.7615 9.43028 21.026 9.549C21.2905 9.66771 21.526 9.84251 21.7163 10.0613C21.9065 10.2801 22.0469 10.5376 22.1278 10.816C22.2086 11.0945 22.2279 11.3871 22.1844 11.6738L20.8044 20.6738C20.7321 21.1507 20.4898 21.5854 20.1223 21.8978C19.7548 22.2102 19.2867 22.3792 18.8044 22.3738H7.52441M7.52441 11.3738V22.3738M7.52441 11.3738H4.52441C3.99398 11.3738 3.48527 11.5845 3.1102 11.9596C2.73513 12.3346 2.52441 12.8433 2.52441 13.3738V20.3738C2.52441 20.9042 2.73513 21.4129 3.1102 21.788C3.48527 22.1631 3.99398 22.3738 4.52441 22.3738H7.52441" stroke="black" strokeWidth="2" stroke-linecap="round" stroke-linejoin="round"/>
</svg>
