<svg width="437" height="41" viewBox="0 0 437 41" fill="none" xmlns="http://www.w3.org/2000/svg">
<path d="M8.26562 4.45312C7.9375 4.45312 7.65625 4.57031 7.42188 4.80469C7.1875 5.02344 7.07031 5.29688 7.07031 5.625V34.8984C7.07031 36.0391 7.44531 36.9844 8.19531 37.7344C8.25781 37.7969 8.39062 37.875 8.59375 37.9688C8.79688 38.0625 8.89844 38.2578 8.89844 38.5547C8.89844 38.8516 8.79688 39 8.59375 39H1C0.796875 39 0.695313 38.8672 0.695313 38.6016C0.695313 38.3203 0.726563 38.1562 0.789063 38.1094C0.867188 38.0469 0.96875 37.9922 1.09375 37.9453C1.21875 37.8828 1.375 37.7578 1.5625 37.5703C1.76563 37.3672 1.97656 37.0078 2.19531 36.4922C2.41406 35.9609 2.52344 35.4297 2.52344 34.8984V4.71094C2.52344 3.57031 2.14844 2.625 1.39844 1.875C1.33594 1.8125 1.20312 1.73438 1 1.64062C0.796875 1.54688 0.695312 1.35938 0.695312 1.07812C0.695312 0.796875 0.796875 0.65625 1 0.65625H13.0234C16.4609 0.6875 19.3359 1.42969 21.6484 2.88281C23.9766 4.32031 25.1406 6.66406 25.1406 9.91406C25.1406 13.7422 23.1406 16.5469 19.1406 18.3281C17.6719 18.9844 16.5547 19.3516 15.7891 19.4297C15.0234 19.4922 14.6406 19.5469 14.6406 19.5938L15.3906 20.0156C15.7031 20.2031 16.3438 20.6797 17.3125 21.4453C18.2812 22.2109 19.2422 23.0781 20.1953 24.0469C21.1484 25 22.2812 26.3281 23.5938 28.0312C24.9062 29.7344 25.875 31.125 26.5 32.2031L28.4219 35.625C29.125 36.9062 29.7109 37.6094 30.1797 37.7344C30.6484 37.8594 30.8828 38.1016 30.8828 38.4609C30.8828 38.8203 30.7812 39 30.5781 39H22.9844C22.7812 39 22.6797 38.8672 22.6797 38.6016C22.6797 38.3203 22.7109 38.1562 22.7734 38.1094C22.8516 38.0469 22.9531 37.9922 23.0781 37.9453C23.2031 37.8828 23.3047 37.8047 23.3828 37.7109C23.4766 37.6172 23.5156 37.4375 23.5 37.1719C23.5 36.8906 23.4688 36.6719 23.4062 36.5156C22.2656 33.5781 20.7109 30.7812 18.7422 28.125C15.0859 23.1875 11.9375 20.5312 9.29688 20.1562C8.92188 20.0938 8.73438 20.0547 8.73438 20.0391C8.70312 19.7578 8.6875 19.375 8.6875 18.8906V17.4609C8.6875 17.3047 8.76562 17.2266 8.92188 17.2266C12.7656 17.2266 15.7656 16.4531 17.9219 14.9062C19.5781 13.7344 20.4062 12.1562 20.4062 10.1719C20.4062 8.1875 19.6094 6.74219 18.0156 5.83594C16.4219 4.91406 14.6172 4.45312 12.6016 4.45312H8.26562ZM34.1641 35.4141C34.1641 35.4141 39.3047 23.9062 49.5859 0.890625C49.6641 0.703125 50.0469 0.609375 50.7344 0.609375C51.4219 0.609375 51.8125 0.703125 51.9062 0.890625L67.7969 35.4141C68.4062 36.8359 69.0078 37.6875 69.6016 37.9688C69.8047 38.0625 69.9062 38.2578 69.9062 38.5547C69.9062 38.8516 69.8047 39 69.6016 39H61.1172C60.9141 39 60.8125 38.8672 60.8125 38.6016C60.8125 38.3203 60.8438 38.1562 60.9062 38.1094C60.9844 38.0469 61.0859 37.9922 61.2109 37.9453C61.3359 37.8828 61.4375 37.8125 61.5156 37.7344C62.1094 37.1406 62.4062 36.5938 62.4062 36.0938C62.4062 35.5781 62.3516 35.1562 62.2422 34.8281L58.8438 26.7891H41.9453L38.6172 34.8281C38.5078 35.1562 38.4531 35.4062 38.4531 35.5781V35.8359C38.4531 35.8516 38.4531 35.8672 38.4531 35.8828C38.4531 36.5234 38.75 37.1406 39.3438 37.7344C39.4062 37.7969 39.5391 37.875 39.7422 37.9688C39.9453 38.0625 40.0469 38.2578 40.0469 38.5547C40.0469 38.8516 39.9453 39 39.7422 39H32.3594C32.1562 39 32.0547 38.8672 32.0547 38.6016C32.0547 38.3203 32.0859 38.1562 32.1484 38.1094C32.2266 38.0469 32.3281 37.9844 32.4531 37.9219C32.9688 37.7031 33.5391 36.8672 34.1641 35.4141ZM43.6094 23.0625C43.5781 23.1094 43.5703 23.1719 43.5859 23.25C43.6016 23.3125 43.6328 23.3438 43.6797 23.3438H57.0625C57.1094 23.3438 57.1406 23.3125 57.1562 23.25C57.1719 23.1719 57.1641 23.1094 57.1328 23.0625L50.3594 8.34375H50.1953L43.6094 23.0625ZM85.3047 39H73.5156C73.3125 39 73.2109 38.8672 73.2109 38.6016C73.2109 38.3203 73.2422 38.1562 73.3047 38.1094C73.3828 38.0469 73.4844 37.9922 73.6094 37.9453C73.7344 37.8828 73.8906 37.7578 74.0781 37.5703C74.2812 37.3672 74.4922 37.0078 74.7109 36.4922C74.9297 35.9609 75.0391 35.4297 75.0391 34.8984V4.71094C75.0391 3.57031 74.6641 2.625 73.9141 1.875C73.8516 1.8125 73.7188 1.73437 73.5156 1.64062C73.3125 1.54687 73.2109 1.35156 73.2109 1.05469C73.2109 0.757812 73.3125 0.609375 73.5156 0.609375H84.1328C87.9453 0.609375 91.5938 1.64062 95.0781 3.70312C97.5469 5.17188 99.5938 7.25 101.219 9.9375C102.844 12.6094 103.656 15.8594 103.656 19.6875C103.656 22.125 103.203 24.5078 102.297 26.8359C101.391 29.1484 100.148 31.2031 98.5703 33C97.0078 34.7969 95.0625 36.25 92.7344 37.3594C90.4219 38.4531 87.9453 39 85.3047 39ZM79.5859 34.4531C79.5859 35.0312 80.0625 35.3203 81.0156 35.3203H83.6406C89.9844 35.3047 94.3906 33.1406 96.8594 28.8281C98.2969 26.3125 99.0156 23.2656 99.0156 19.6875C99.0156 15.3281 97.8125 11.7266 95.4062 8.88281C94.2031 7.46094 92.6016 6.35156 90.6016 5.55469C88.6016 4.74219 86.2969 4.33594 83.6875 4.33594H80.0781C79.9531 4.33594 79.8359 4.38281 79.7266 4.47656C79.6328 4.57031 79.5859 4.6875 79.5859 4.82812V34.4531ZM108.25 0.609375H115.844C116.047 0.609375 116.148 0.75 116.148 1.03125C116.148 1.29687 116.109 1.46094 116.031 1.52344C115.969 1.57031 115.875 1.625 115.75 1.6875C115.625 1.73437 115.461 1.85937 115.258 2.0625C115.07 2.25 114.867 2.60937 114.648 3.14062C114.43 3.65625 114.32 4.17969 114.32 4.71094V34.8984C114.32 36.0391 114.695 36.9844 115.445 37.7344C115.508 37.7969 115.641 37.875 115.844 37.9688C116.047 38.0625 116.148 38.2578 116.148 38.5547C116.148 38.8516 116.047 39 115.844 39H108.25C108.047 39 107.945 38.8672 107.945 38.6016C107.945 38.3203 107.977 38.1562 108.039 38.1094C108.117 38.0469 108.219 37.9922 108.344 37.9453C108.469 37.8828 108.625 37.7578 108.812 37.5703C109.016 37.3672 109.227 37.0078 109.445 36.4922C109.664 35.9609 109.773 35.4297 109.773 34.8984V4.71094C109.773 3.57031 109.398 2.625 108.648 1.875C108.586 1.8125 108.453 1.73437 108.25 1.64062C108.047 1.54687 107.945 1.35156 107.945 1.05469C107.945 0.757812 108.047 0.609375 108.25 0.609375ZM122.008 35.4141C122.008 35.4141 127.148 23.9062 137.43 0.890625C137.508 0.703125 137.891 0.609375 138.578 0.609375C139.266 0.609375 139.656 0.703125 139.75 0.890625L155.641 35.4141C156.25 36.8359 156.852 37.6875 157.445 37.9688C157.648 38.0625 157.75 38.2578 157.75 38.5547C157.75 38.8516 157.648 39 157.445 39H148.961C148.758 39 148.656 38.8672 148.656 38.6016C148.656 38.3203 148.688 38.1562 148.75 38.1094C148.828 38.0469 148.93 37.9922 149.055 37.9453C149.18 37.8828 149.281 37.8125 149.359 37.7344C149.953 37.1406 150.25 36.5938 150.25 36.0938C150.25 35.5781 150.195 35.1562 150.086 34.8281L146.688 26.7891H129.789L126.461 34.8281C126.352 35.1562 126.297 35.4062 126.297 35.5781V35.8359C126.297 35.8516 126.297 35.8672 126.297 35.8828C126.297 36.5234 126.594 37.1406 127.188 37.7344C127.25 37.7969 127.383 37.875 127.586 37.9688C127.789 38.0625 127.891 38.2578 127.891 38.5547C127.891 38.8516 127.789 39 127.586 39H120.203C120 39 119.898 38.8672 119.898 38.6016C119.898 38.3203 119.93 38.1562 119.992 38.1094C120.07 38.0469 120.172 37.9844 120.297 37.9219C120.812 37.7031 121.383 36.8672 122.008 35.4141ZM131.453 23.0625C131.422 23.1094 131.414 23.1719 131.43 23.25C131.445 23.3125 131.477 23.3438 131.523 23.3438H144.906C144.953 23.3438 144.984 23.3125 145 23.25C145.016 23.1719 145.008 23.1094 144.977 23.0625L138.203 8.34375H138.039L131.453 23.0625ZM167.195 0.609375C167.336 0.609375 167.469 0.671875 167.594 0.796875L193.797 28.5938H193.961V4.71094C193.961 3.58594 193.578 2.64062 192.812 1.875C192.75 1.8125 192.617 1.73437 192.414 1.64062C192.211 1.54687 192.109 1.35156 192.109 1.05469C192.109 0.757812 192.211 0.609375 192.414 0.609375H200.078C200.281 0.609375 200.383 0.75 200.383 1.03125C200.383 1.29687 200.344 1.46094 200.266 1.52344C200.203 1.57031 200.109 1.625 199.984 1.6875C199.859 1.73437 199.695 1.85937 199.492 2.0625C199.289 2.26562 199.07 2.625 198.836 3.14062C198.617 3.65625 198.508 4.17969 198.508 4.71094V37.7578C198.508 38.3359 198.43 38.6875 198.273 38.8125C198.133 38.9375 197.898 39 197.57 39C197.242 39 196.977 38.9062 196.773 38.7188L167.312 7.45312V34.8984C167.312 36.1016 167.656 37.0469 168.344 37.7344C168.406 37.7969 168.539 37.875 168.742 37.9688C168.945 38.0625 169.047 38.2578 169.047 38.5547C169.047 38.8516 168.945 39 168.742 39H161.195C160.992 39 160.891 38.8672 160.891 38.6016C160.891 38.3203 160.922 38.1562 160.984 38.1094C161.062 38.0469 161.164 37.9922 161.289 37.9453C161.414 37.8828 161.516 37.8125 161.594 37.7344C162.375 36.9531 162.766 36.0078 162.766 34.8984V4.71094C162.766 3.55469 162.398 2.60937 161.664 1.875C161.602 1.8125 161.469 1.73437 161.266 1.64062C161.062 1.54687 160.961 1.35156 160.961 1.05469C160.961 0.757812 161.062 0.609375 161.266 0.609375H167.195ZM225.039 36.3281C228.57 36.3281 231.727 35.5312 234.508 33.9375C237.305 32.3438 239.602 30.2031 241.398 27.5156C241.602 27.1875 241.75 27.0859 241.844 27.2109C241.953 27.3359 242.086 27.5078 242.242 27.7266L242.969 28.7812C243.203 29.1719 243.289 29.4141 243.227 29.5078C242.289 31.4141 240.719 33.2812 238.516 35.1094C234.438 38.5156 229.945 40.2188 225.039 40.2188C222.195 40.2188 219.531 39.6719 217.047 38.5781C214.562 37.4688 212.469 35.9922 210.766 34.1484C209.062 32.3047 207.719 30.1484 206.734 27.6797C205.766 25.1953 205.281 22.625 205.281 19.9688C205.281 17.3125 205.805 14.7734 206.852 12.3516C207.914 9.91406 209.328 7.8125 211.094 6.04687C212.859 4.26562 214.953 2.84375 217.375 1.78125C219.797 0.703125 222.242 0.164062 224.711 0.164062C227.648 0.164062 230.609 0.734375 233.594 1.875L234.672 2.27344C234.828 2.33594 235.047 2.27344 235.328 2.08594C235.609 1.89844 235.906 1.80469 236.219 1.80469C236.531 1.80469 236.773 1.95312 236.945 2.25C237.008 2.29687 237.031 2.46094 237.016 2.74219C236.984 3.19531 237.172 4.23438 237.578 5.85937L238.164 8.4375C238.32 9.10938 238.398 9.53906 238.398 9.72656C238.398 9.82031 238.195 9.96875 237.789 10.1719C237.398 10.3594 237.172 10.3984 237.109 10.2891C235.812 8.02344 234.18 6.46094 232.211 5.60156C230.258 4.74219 227.812 4.3125 224.875 4.3125C221.953 4.3125 219.312 4.97656 216.953 6.30469C214.594 7.63281 212.773 9.48438 211.492 11.8594C210.211 14.2188 209.57 16.8984 209.57 19.8984C209.57 21.8672 210.023 23.8594 210.93 25.875C211.836 27.875 213 29.6406 214.422 31.1719C215.859 32.6875 217.523 33.9297 219.414 34.8984C221.305 35.8516 223.18 36.3281 225.039 36.3281ZM268.469 16.0312C269.609 16.0312 270.555 15.6562 271.305 14.9062C271.367 14.8437 271.445 14.7109 271.539 14.5078C271.633 14.3047 271.828 14.2031 272.125 14.2031C272.422 14.2031 272.57 14.3047 272.57 14.5078V21.3047C272.57 21.5078 272.43 21.6094 272.148 21.6094C271.883 21.6094 271.719 21.5781 271.656 21.5156C271.609 21.4375 271.555 21.3359 271.492 21.2109C271.445 21.0859 271.32 20.9297 271.117 20.7422C270.93 20.5391 270.57 20.3359 270.039 20.1328C269.523 19.9297 269 19.8281 268.469 19.8281L253.68 19.8281V35.2031H269.242C271.008 35.2031 272.086 35.0547 272.477 34.7578C272.883 34.4453 273.164 34.1719 273.32 33.9375C273.492 33.7031 273.617 33.5859 273.695 33.5859C273.789 33.5859 273.945 33.625 274.164 33.7031C274.398 33.7812 274.516 33.8516 274.516 33.9141C274.516 33.9766 274.406 34.2812 274.188 34.8281L273.438 36.7266C273.156 37.4453 272.961 37.9922 272.852 38.3672C272.758 38.7266 272.625 38.9375 272.453 39H247.609C247.406 39 247.305 38.8672 247.305 38.6016C247.305 38.3203 247.336 38.1562 247.398 38.1094C247.477 38.0469 247.578 37.9922 247.703 37.9453C247.828 37.8828 247.984 37.7578 248.172 37.5703C248.375 37.3672 248.586 37.0078 248.805 36.4922C249.023 35.9609 249.133 35.4297 249.133 34.8984V4.71094C249.133 3.57031 248.758 2.625 248.008 1.875C247.945 1.8125 247.812 1.73437 247.609 1.64062C247.406 1.54687 247.305 1.35156 247.305 1.05469C247.305 0.757812 247.406 0.609375 247.609 0.609375H272.453C272.609 0.609375 272.742 0.8125 272.852 1.21875C272.961 1.60938 273.156 2.16406 273.438 2.88281L274.188 4.78125C274.406 5.32812 274.516 5.63281 274.516 5.69531C274.516 5.75781 274.398 5.82812 274.164 5.90625C273.945 5.98437 273.797 6.02344 273.719 6.02344C273.656 6.02344 273.586 5.98437 273.508 5.90625C273.43 5.8125 273.336 5.69531 273.227 5.55469C273.133 5.39844 272.883 5.17188 272.477 4.875C272.086 4.5625 271.008 4.40625 269.242 4.40625H253.68V16.0312L268.469 16.0312ZM289.539 35.4141C289.539 35.4141 294.68 23.9062 304.961 0.890625C305.039 0.703125 305.422 0.609375 306.109 0.609375C306.797 0.609375 307.188 0.703125 307.281 0.890625L323.172 35.4141C323.781 36.8359 324.383 37.6875 324.977 37.9688C325.18 38.0625 325.281 38.2578 325.281 38.5547C325.281 38.8516 325.18 39 324.977 39H316.492C316.289 39 316.188 38.8672 316.188 38.6016C316.188 38.3203 316.219 38.1562 316.281 38.1094C316.359 38.0469 316.461 37.9922 316.586 37.9453C316.711 37.8828 316.812 37.8125 316.891 37.7344C317.484 37.1406 317.781 36.5938 317.781 36.0938C317.781 35.5781 317.727 35.1562 317.617 34.8281L314.219 26.7891H297.32L293.992 34.8281C293.883 35.1562 293.828 35.4062 293.828 35.5781V35.8359C293.828 35.8516 293.828 35.8672 293.828 35.8828C293.828 36.5234 294.125 37.1406 294.719 37.7344C294.781 37.7969 294.914 37.875 295.117 37.9688C295.32 38.0625 295.422 38.2578 295.422 38.5547C295.422 38.8516 295.32 39 295.117 39H287.734C287.531 39 287.43 38.8672 287.43 38.6016C287.43 38.3203 287.461 38.1562 287.523 38.1094C287.602 38.0469 287.703 37.9844 287.828 37.9219C288.344 37.7031 288.914 36.8672 289.539 35.4141ZM298.984 23.0625C298.953 23.1094 298.945 23.1719 298.961 23.25C298.977 23.3125 299.008 23.3437 299.055 23.3437H312.438C312.484 23.3437 312.516 23.3125 312.531 23.25C312.547 23.1719 312.539 23.1094 312.508 23.0625L305.734 8.34375H305.57L298.984 23.0625ZM328.398 4.71094C328.398 3.60156 328.008 2.65625 327.227 1.875C327.164 1.8125 327.031 1.73437 326.828 1.64062C326.625 1.54687 326.523 1.35156 326.523 1.05469C326.523 0.757812 326.625 0.609375 326.828 0.609375H334.703C334.906 0.609375 335.008 0.75 335.008 1.03125C335.008 1.29687 334.969 1.46094 334.891 1.52344C334.828 1.57031 334.734 1.625 334.609 1.6875C334.484 1.73437 334.32 1.85937 334.117 2.0625C333.93 2.25 333.727 2.60937 333.508 3.14062C333.289 3.65625 333.18 4.17969 333.18 4.71094V24.1406C333.18 27.75 334.289 30.5547 336.508 32.5547C338.742 34.5391 341.469 35.5312 344.688 35.5312C346.578 35.5312 348.352 35.0547 350.008 34.1016C351.68 33.1328 353 31.8594 353.969 30.2812C354.953 28.6875 355.445 27 355.445 25.2187V4.71094C355.445 3.57031 355.07 2.625 354.32 1.875C354.258 1.8125 354.125 1.73437 353.922 1.64062C353.719 1.54687 353.617 1.35156 353.617 1.05469C353.617 0.757812 353.719 0.609375 353.922 0.609375H361.234C361.438 0.609375 361.539 0.75 361.539 1.03125C361.539 1.29687 361.5 1.46094 361.422 1.52344C361.359 1.57031 361.266 1.625 361.141 1.6875C361.016 1.73437 360.852 1.85937 360.648 2.0625C360.461 2.25 360.258 2.60937 360.039 3.14062C359.82 3.65625 359.711 4.17969 359.711 4.71094V25.2187C359.711 27.9062 359.016 30.375 357.625 32.625C356.25 34.875 354.398 36.6406 352.07 37.9219C349.758 39.2031 347.188 39.8438 344.359 39.8438C341.547 39.8438 338.914 39.1875 336.461 37.875C334.023 36.5625 332.07 34.7031 330.602 32.2969C329.133 29.875 328.398 27.1562 328.398 24.1406V4.71094ZM374.828 4.45312C374.5 4.45312 374.219 4.57031 373.984 4.80469C373.75 5.02344 373.633 5.29687 373.633 5.625V34.8984C373.633 36.0391 374.008 36.9844 374.758 37.7344C374.82 37.7969 374.953 37.875 375.156 37.9688C375.359 38.0625 375.461 38.2578 375.461 38.5547C375.461 38.8516 375.359 39 375.156 39H367.562C367.359 39 367.258 38.8672 367.258 38.6016C367.258 38.3203 367.289 38.1562 367.352 38.1094C367.43 38.0469 367.531 37.9922 367.656 37.9453C367.781 37.8828 367.938 37.7578 368.125 37.5703C368.328 37.3672 368.539 37.0078 368.758 36.4922C368.977 35.9609 369.086 35.4297 369.086 34.8984V4.71094C369.086 3.57031 368.711 2.625 367.961 1.875C367.898 1.8125 367.766 1.73437 367.562 1.64062C367.359 1.54687 367.258 1.35937 367.258 1.07812C367.258 0.796875 367.359 0.65625 367.562 0.65625H379.586C383.023 0.6875 385.898 1.42969 388.211 2.88281C390.539 4.32031 391.703 6.66406 391.703 9.91406C391.703 13.7422 389.703 16.5469 385.703 18.3281C384.234 18.9844 383.117 19.3516 382.352 19.4297C381.586 19.4922 381.203 19.5469 381.203 19.5937L381.953 20.0156C382.266 20.2031 382.906 20.6797 383.875 21.4453C384.844 22.2109 385.805 23.0781 386.758 24.0469C387.711 25 388.844 26.3281 390.156 28.0312C391.469 29.7344 392.438 31.125 393.062 32.2031L394.984 35.625C395.688 36.9062 396.273 37.6094 396.742 37.7344C397.211 37.8594 397.445 38.1016 397.445 38.4609C397.445 38.8203 397.344 39 397.141 39H389.547C389.344 39 389.242 38.8672 389.242 38.6016C389.242 38.3203 389.273 38.1562 389.336 38.1094C389.414 38.0469 389.516 37.9922 389.641 37.9453C389.766 37.8828 389.867 37.8047 389.945 37.7109C390.039 37.6172 390.078 37.4375 390.062 37.1719C390.062 36.8906 390.031 36.6719 389.969 36.5156C388.828 33.5781 387.273 30.7812 385.305 28.125C381.648 23.1875 378.5 20.5312 375.859 20.1562C375.484 20.0937 375.297 20.0547 375.297 20.0391C375.266 19.7578 375.25 19.375 375.25 18.8906V17.4609C375.25 17.3047 375.328 17.2266 375.484 17.2266C379.328 17.2266 382.328 16.4531 384.484 14.9062C386.141 13.7344 386.969 12.1562 386.969 10.1719C386.969 8.1875 386.172 6.74219 384.578 5.83594C382.984 4.91406 381.18 4.45312 379.164 4.45312H374.828ZM400.727 35.4141C400.727 35.4141 405.867 23.9062 416.148 0.890625C416.227 0.703125 416.609 0.609375 417.297 0.609375C417.984 0.609375 418.375 0.703125 418.469 0.890625L434.359 35.4141C434.969 36.8359 435.57 37.6875 436.164 37.9688C436.367 38.0625 436.469 38.2578 436.469 38.5547C436.469 38.8516 436.367 39 436.164 39H427.68C427.477 39 427.375 38.8672 427.375 38.6016C427.375 38.3203 427.406 38.1562 427.469 38.1094C427.547 38.0469 427.648 37.9922 427.773 37.9453C427.898 37.8828 428 37.8125 428.078 37.7344C428.672 37.1406 428.969 36.5938 428.969 36.0938C428.969 35.5781 428.914 35.1562 428.805 34.8281L425.406 26.7891H408.508L405.18 34.8281C405.07 35.1562 405.016 35.4062 405.016 35.5781V35.8359C405.016 35.8516 405.016 35.8672 405.016 35.8828C405.016 36.5234 405.312 37.1406 405.906 37.7344C405.969 37.7969 406.102 37.875 406.305 37.9688C406.508 38.0625 406.609 38.2578 406.609 38.5547C406.609 38.8516 406.508 39 406.305 39H398.922C398.719 39 398.617 38.8672 398.617 38.6016C398.617 38.3203 398.648 38.1562 398.711 38.1094C398.789 38.0469 398.891 37.9844 399.016 37.9219C399.531 37.7031 400.102 36.8672 400.727 35.4141ZM410.172 23.0625C410.141 23.1094 410.133 23.1719 410.148 23.25C410.164 23.3125 410.195 23.3437 410.242 23.3437H423.625C423.672 23.3437 423.703 23.3125 423.719 23.25C423.734 23.1719 423.727 23.1094 423.695 23.0625L416.922 8.34375H416.758L410.172 23.0625Z" fill="#212121"/>
</svg>
