<svg width="382" height="36" viewBox="0 0 382 36" fill="none" xmlns="http://www.w3.org/2000/svg">
<path d="M6.98242 3.77148C6.69531 3.77148 6.44922 3.87402 6.24414 4.0791C6.03906 4.27051 5.93652 4.50977 5.93652 4.79688V30.4111C5.93652 31.4092 6.26465 32.2363 6.9209 32.8926C6.97559 32.9473 7.0918 33.0156 7.26953 33.0977C7.44727 33.1797 7.53613 33.3506 7.53613 33.6104C7.53613 33.8701 7.44727 34 7.26953 34H0.625C0.447266 34 0.358398 33.8838 0.358398 33.6514C0.358398 33.4053 0.385742 33.2617 0.44043 33.2207C0.508789 33.166 0.597656 33.1182 0.707031 33.0771C0.816406 33.0225 0.953125 32.9131 1.11719 32.749C1.29492 32.5713 1.47949 32.2568 1.6709 31.8057C1.8623 31.3408 1.95801 30.876 1.95801 30.4111L1.95801 3.99707C1.95801 2.99902 1.62988 2.17188 0.973633 1.51562C0.918945 1.46094 0.802734 1.39258 0.625 1.31055C0.447266 1.22852 0.358398 1.06445 0.358398 0.818359C0.358398 0.572266 0.447266 0.449219 0.625 0.449219H11.1455C14.1533 0.476562 16.6689 1.12598 18.6924 2.39746C20.7295 3.65527 21.748 5.70605 21.748 8.5498C21.748 11.8994 19.998 14.3535 16.498 15.9121C15.2129 16.4863 14.2354 16.8076 13.5654 16.876C12.8955 16.9307 12.5605 16.9785 12.5605 17.0195L13.2168 17.3887C13.4902 17.5527 14.0508 17.9697 14.8984 18.6396C15.7461 19.3096 16.5869 20.0684 17.4209 20.916C18.2549 21.75 19.2461 22.9121 20.3945 24.4023C21.543 25.8926 22.3906 27.1094 22.9375 28.0527L24.6191 31.0469C25.2344 32.168 25.7471 32.7832 26.1572 32.8926C26.5674 33.002 26.7725 33.2139 26.7725 33.5283C26.7725 33.8428 26.6836 34 26.5059 34H19.8613C19.6836 34 19.5947 33.8838 19.5947 33.6514C19.5947 33.4053 19.6221 33.2617 19.6768 33.2207C19.7451 33.166 19.834 33.1182 19.9434 33.0771C20.0527 33.0225 20.1416 32.9541 20.21 32.8721C20.292 32.79 20.3262 32.6328 20.3125 32.4004C20.3125 32.1543 20.2852 31.9629 20.2305 31.8262C19.2324 29.2559 17.8721 26.8086 16.1494 24.4844C12.9502 20.1641 10.1953 17.8398 7.88477 17.5117C7.55664 17.457 7.39258 17.4229 7.39258 17.4092C7.36523 17.1631 7.35156 16.8281 7.35156 16.4043V15.1533C7.35156 15.0166 7.41992 14.9482 7.55664 14.9482C10.9199 14.9482 13.5449 14.2715 15.4316 12.918C16.8809 11.8926 17.6055 10.5117 17.6055 8.77539C17.6055 7.03906 16.9082 5.77441 15.5137 4.98145C14.1191 4.1748 12.54 3.77148 10.7764 3.77148H6.98242ZM29.6436 30.8623C29.6436 30.8623 34.1416 20.793 43.1377 0.654297C43.2061 0.490234 43.541 0.408203 44.1426 0.408203C44.7441 0.408203 45.0859 0.490234 45.168 0.654297L59.0723 30.8623C59.6055 32.1064 60.1318 32.8516 60.6514 33.0977C60.8291 33.1797 60.918 33.3506 60.918 33.6104C60.918 33.8701 60.8291 34 60.6514 34H53.2275C53.0498 34 52.9609 33.8838 52.9609 33.6514C52.9609 33.4053 52.9883 33.2617 53.043 33.2207C53.1113 33.166 53.2002 33.1182 53.3096 33.0771C53.4189 33.0225 53.5078 32.9609 53.5762 32.8926C54.0957 32.373 54.3555 31.8945 54.3555 31.457C54.3555 31.0059 54.3076 30.6367 54.2119 30.3496L51.2383 23.3154H36.4521L33.54 30.3496C33.4443 30.6367 33.3965 30.8555 33.3965 31.0059V31.2314C33.3965 31.2451 33.3965 31.2588 33.3965 31.2725C33.3965 31.833 33.6562 32.373 34.1758 32.8926C34.2305 32.9473 34.3467 33.0156 34.5244 33.0977C34.7021 33.1797 34.791 33.3506 34.791 33.6104C34.791 33.8701 34.7021 34 34.5244 34H28.0645C27.8867 34 27.7979 33.8838 27.7979 33.6514C27.7979 33.4053 27.8252 33.2617 27.8799 33.2207C27.9482 33.166 28.0371 33.1113 28.1465 33.0566C28.5977 32.8652 29.0967 32.1338 29.6436 30.8623ZM37.9082 20.0547C37.8809 20.0957 37.874 20.1504 37.8877 20.2188C37.9014 20.2734 37.9287 20.3008 37.9697 20.3008H49.6797C49.7207 20.3008 49.748 20.2734 49.7617 20.2188C49.7754 20.1504 49.7686 20.0957 49.7412 20.0547L43.8145 7.17578H43.6709L37.9082 20.0547ZM74.3916 34H64.0762C63.8984 34 63.8096 33.8838 63.8096 33.6514C63.8096 33.4053 63.8369 33.2617 63.8916 33.2207C63.96 33.166 64.0488 33.1182 64.1582 33.0771C64.2676 33.0225 64.4043 32.9131 64.5684 32.749C64.7461 32.5713 64.9307 32.2568 65.1221 31.8057C65.3135 31.3408 65.4092 30.876 65.4092 30.4111V3.99707C65.4092 2.99902 65.0811 2.17187 64.4248 1.51562C64.3701 1.46094 64.2539 1.39258 64.0762 1.31055C63.8984 1.22852 63.8096 1.05762 63.8096 0.797852C63.8096 0.538086 63.8984 0.408203 64.0762 0.408203H73.3662C76.7021 0.408203 79.8945 1.31055 82.9434 3.11523C85.1035 4.40039 86.8945 6.21875 88.3164 8.57031C89.7383 10.9082 90.4492 13.752 90.4492 17.1016C90.4492 19.2344 90.0527 21.3193 89.2598 23.3564C88.4668 25.3799 87.3799 27.1777 85.999 28.75C84.6318 30.3223 82.9297 31.5938 80.8926 32.5645C78.8691 33.5215 76.7021 34 74.3916 34ZM69.3877 30.0215C69.3877 30.5273 69.8047 30.7803 70.6387 30.7803H72.9355C78.4863 30.7666 82.3418 28.873 84.502 25.0996C85.7598 22.8984 86.3887 20.2324 86.3887 17.1016C86.3887 13.2871 85.3359 10.1357 83.2305 7.64746C82.1777 6.40332 80.7764 5.43262 79.0264 4.73535C77.2764 4.02441 75.2598 3.66895 72.9766 3.66895H69.8184C69.709 3.66895 69.6064 3.70996 69.5107 3.79199C69.4287 3.87402 69.3877 3.97656 69.3877 4.09961V30.0215ZM94.4688 0.408203H101.113C101.291 0.408203 101.38 0.53125 101.38 0.777344C101.38 1.00977 101.346 1.15332 101.277 1.20801C101.223 1.24902 101.141 1.29687 101.031 1.35156C100.922 1.39258 100.778 1.50195 100.601 1.67969C100.437 1.84375 100.259 2.1582 100.067 2.62305C99.876 3.07422 99.7803 3.53223 99.7803 3.99707V30.4111C99.7803 31.4092 100.108 32.2363 100.765 32.8926C100.819 32.9473 100.936 33.0156 101.113 33.0977C101.291 33.1797 101.38 33.3506 101.38 33.6104C101.38 33.8701 101.291 34 101.113 34H94.4688C94.291 34 94.2021 33.8838 94.2021 33.6514C94.2021 33.4053 94.2295 33.2617 94.2842 33.2207C94.3525 33.166 94.4414 33.1182 94.5508 33.0771C94.6602 33.0225 94.7969 32.9131 94.9609 32.749C95.1387 32.5713 95.3232 32.2568 95.5146 31.8057C95.7061 31.3408 95.8018 30.876 95.8018 30.4111V3.99707C95.8018 2.99902 95.4736 2.17187 94.8174 1.51562C94.7627 1.46094 94.6465 1.39258 94.4688 1.31055C94.291 1.22852 94.2021 1.05762 94.2021 0.797852C94.2021 0.538086 94.291 0.408203 94.4688 0.408203ZM106.507 30.8623C106.507 30.8623 111.005 20.793 120.001 0.654297C120.069 0.490234 120.404 0.408203 121.006 0.408203C121.607 0.408203 121.949 0.490234 122.031 0.654297L135.936 30.8623C136.469 32.1064 136.995 32.8516 137.515 33.0977C137.692 33.1797 137.781 33.3506 137.781 33.6104C137.781 33.8701 137.692 34 137.515 34H130.091C129.913 34 129.824 33.8838 129.824 33.6514C129.824 33.4053 129.852 33.2617 129.906 33.2207C129.975 33.166 130.063 33.1182 130.173 33.0771C130.282 33.0225 130.371 32.9609 130.439 32.8926C130.959 32.373 131.219 31.8945 131.219 31.457C131.219 31.0059 131.171 30.6367 131.075 30.3496L128.102 23.3154H113.315L110.403 30.3496C110.308 30.6367 110.26 30.8555 110.26 31.0059V31.2314C110.26 31.2451 110.26 31.2588 110.26 31.2725C110.26 31.833 110.52 32.373 111.039 32.8926C111.094 32.9473 111.21 33.0156 111.388 33.0977C111.565 33.1797 111.654 33.3506 111.654 33.6104C111.654 33.8701 111.565 34 111.388 34H104.928C104.75 34 104.661 33.8838 104.661 33.6514C104.661 33.4053 104.688 33.2617 104.743 33.2207C104.812 33.166 104.9 33.1113 105.01 33.0566C105.461 32.8652 105.96 32.1338 106.507 30.8623ZM114.771 20.0547C114.744 20.0957 114.737 20.1504 114.751 20.2188C114.765 20.2734 114.792 20.3008 114.833 20.3008H126.543C126.584 20.3008 126.611 20.2734 126.625 20.2188C126.639 20.1504 126.632 20.0957 126.604 20.0547L120.678 7.17578H120.534L114.771 20.0547ZM146.046 0.408203C146.169 0.408203 146.285 0.462891 146.395 0.572266L169.322 24.8945H169.466V3.99707C169.466 3.0127 169.131 2.18555 168.461 1.51562C168.406 1.46094 168.29 1.39258 168.112 1.31055C167.935 1.22852 167.846 1.05762 167.846 0.797852C167.846 0.538086 167.935 0.408203 168.112 0.408203H174.818C174.996 0.408203 175.085 0.53125 175.085 0.777344C175.085 1.00977 175.051 1.15332 174.982 1.20801C174.928 1.24902 174.846 1.29687 174.736 1.35156C174.627 1.39258 174.483 1.50195 174.306 1.67969C174.128 1.85742 173.937 2.17187 173.731 2.62305C173.54 3.07422 173.444 3.53223 173.444 3.99707V32.9131C173.444 33.4189 173.376 33.7266 173.239 33.8359C173.116 33.9453 172.911 34 172.624 34C172.337 34 172.104 33.918 171.927 33.7539L146.148 6.39648V30.4111C146.148 31.4639 146.449 32.291 147.051 32.8926C147.105 32.9473 147.222 33.0156 147.399 33.0977C147.577 33.1797 147.666 33.3506 147.666 33.6104C147.666 33.8701 147.577 34 147.399 34H140.796C140.618 34 140.529 33.8838 140.529 33.6514C140.529 33.4053 140.557 33.2617 140.611 33.2207C140.68 33.166 140.769 33.1182 140.878 33.0771C140.987 33.0225 141.076 32.9609 141.145 32.8926C141.828 32.209 142.17 31.3818 142.17 30.4111V3.99707C142.17 2.98535 141.849 2.1582 141.206 1.51562C141.151 1.46094 141.035 1.39258 140.857 1.31055C140.68 1.22852 140.591 1.05762 140.591 0.797852C140.591 0.538086 140.68 0.408203 140.857 0.408203H146.046ZM196.659 31.6621C199.749 31.6621 202.511 30.9648 204.944 29.5703C207.392 28.1758 209.401 26.3027 210.974 23.9512C211.151 23.6641 211.281 23.5752 211.363 23.6846C211.459 23.7939 211.575 23.9443 211.712 24.1357L212.348 25.0586C212.553 25.4004 212.628 25.6123 212.573 25.6943C211.753 27.3623 210.379 28.9961 208.451 30.5957C204.883 33.5762 200.952 35.0664 196.659 35.0664C194.171 35.0664 191.84 34.5879 189.666 33.6309C187.492 32.6602 185.66 31.3682 184.17 29.7549C182.68 28.1416 181.504 26.2549 180.643 24.0947C179.795 21.9209 179.371 19.6719 179.371 17.3477C179.371 15.0234 179.829 12.8018 180.745 10.6826C181.675 8.5498 182.912 6.71094 184.457 5.16602C186.002 3.60742 187.834 2.36328 189.953 1.43359C192.072 0.490234 194.212 0.0185547 196.372 0.0185547C198.942 0.0185547 201.533 0.517578 204.145 1.51562L205.088 1.86426C205.225 1.91895 205.416 1.86426 205.662 1.7002C205.908 1.53613 206.168 1.4541 206.441 1.4541C206.715 1.4541 206.927 1.58398 207.077 1.84375C207.132 1.88477 207.152 2.02832 207.139 2.27441C207.111 2.6709 207.275 3.58008 207.631 5.00195L208.144 7.25781C208.28 7.8457 208.349 8.22168 208.349 8.38574C208.349 8.46777 208.171 8.59766 207.815 8.77539C207.474 8.93945 207.275 8.97363 207.221 8.87793C206.086 6.89551 204.657 5.52832 202.935 4.77637C201.226 4.02441 199.086 3.64844 196.516 3.64844C193.959 3.64844 191.648 4.22949 189.584 5.3916C187.52 6.55371 185.927 8.17383 184.806 10.252C183.685 12.3164 183.124 14.6611 183.124 17.2861C183.124 19.0088 183.521 20.752 184.313 22.5156C185.106 24.2656 186.125 25.8105 187.369 27.1504C188.627 28.4766 190.083 29.5635 191.737 30.4111C193.392 31.2451 195.032 31.6621 196.659 31.6621ZM234.66 13.9023C235.658 13.9023 236.485 13.5742 237.142 12.918C237.196 12.8633 237.265 12.7471 237.347 12.5693C237.429 12.3916 237.6 12.3027 237.859 12.3027C238.119 12.3027 238.249 12.3916 238.249 12.5693V18.5166C238.249 18.6943 238.126 18.7832 237.88 18.7832C237.647 18.7832 237.504 18.7559 237.449 18.7012C237.408 18.6328 237.36 18.5439 237.306 18.4346C237.265 18.3252 237.155 18.1885 236.978 18.0244C236.813 17.8467 236.499 17.6689 236.034 17.4912C235.583 17.3135 235.125 17.2246 234.66 17.2246H221.72V30.6777H235.337C236.882 30.6777 237.825 30.5479 238.167 30.2881C238.522 30.0146 238.769 29.7754 238.905 29.5703C239.056 29.3652 239.165 29.2627 239.233 29.2627C239.315 29.2627 239.452 29.2969 239.644 29.3652C239.849 29.4336 239.951 29.4951 239.951 29.5498C239.951 29.6045 239.855 29.8711 239.664 30.3496L239.008 32.0107C238.762 32.6396 238.591 33.1182 238.495 33.4463C238.413 33.7607 238.297 33.9453 238.146 34H216.408C216.23 34 216.142 33.8838 216.142 33.6514C216.142 33.4053 216.169 33.2617 216.224 33.2207C216.292 33.166 216.381 33.1182 216.49 33.0771C216.6 33.0225 216.736 32.9131 216.9 32.749C217.078 32.5713 217.263 32.2568 217.454 31.8057C217.646 31.3408 217.741 30.876 217.741 30.4111V3.99707C217.741 2.99902 217.413 2.17187 216.757 1.51562C216.702 1.46094 216.586 1.39258 216.408 1.31055C216.23 1.22852 216.142 1.05762 216.142 0.797852C216.142 0.538086 216.23 0.408203 216.408 0.408203L238.146 0.408203C238.283 0.408203 238.399 0.585938 238.495 0.941406C238.591 1.2832 238.762 1.76855 239.008 2.39746L239.664 4.05859C239.855 4.53711 239.951 4.80371 239.951 4.8584C239.951 4.91309 239.849 4.97461 239.644 5.04297C239.452 5.11133 239.322 5.14551 239.254 5.14551C239.199 5.14551 239.138 5.11133 239.069 5.04297C239.001 4.96094 238.919 4.8584 238.823 4.73535C238.741 4.59863 238.522 4.40039 238.167 4.14062C237.825 3.86719 236.882 3.73047 235.337 3.73047H221.72V13.9023H234.66ZM253.097 30.8623C253.097 30.8623 257.595 20.793 266.591 0.654297C266.659 0.490234 266.994 0.408203 267.596 0.408203C268.197 0.408203 268.539 0.490234 268.621 0.654297L282.525 30.8623C283.059 32.1064 283.585 32.8516 284.104 33.0977C284.282 33.1797 284.371 33.3506 284.371 33.6104C284.371 33.8701 284.282 34 284.104 34H276.681C276.503 34 276.414 33.8838 276.414 33.6514C276.414 33.4053 276.441 33.2617 276.496 33.2207C276.564 33.166 276.653 33.1182 276.763 33.0771C276.872 33.0225 276.961 32.9609 277.029 32.8926C277.549 32.373 277.809 31.8945 277.809 31.457C277.809 31.0059 277.761 30.6367 277.665 30.3496L274.691 23.3154H259.905L256.993 30.3496C256.897 30.6367 256.85 30.8555 256.85 31.0059V31.2314C256.85 31.2451 256.85 31.2588 256.85 31.2725C256.85 31.833 257.109 32.373 257.629 32.8926C257.684 32.9473 257.8 33.0156 257.978 33.0977C258.155 33.1797 258.244 33.3506 258.244 33.6104C258.244 33.8701 258.155 34 257.978 34H251.518C251.34 34 251.251 33.8838 251.251 33.6514C251.251 33.4053 251.278 33.2617 251.333 33.2207C251.401 33.166 251.49 33.1113 251.6 33.0566C252.051 32.8652 252.55 32.1338 253.097 30.8623ZM261.361 20.0547C261.334 20.0957 261.327 20.1504 261.341 20.2187C261.354 20.2734 261.382 20.3008 261.423 20.3008H273.133C273.174 20.3008 273.201 20.2734 273.215 20.2187C273.229 20.1504 273.222 20.0957 273.194 20.0547L267.268 7.17578H267.124L261.361 20.0547ZM287.099 3.99707C287.099 3.02637 286.757 2.19922 286.073 1.51562C286.019 1.46094 285.902 1.39258 285.725 1.31055C285.547 1.22852 285.458 1.05762 285.458 0.797852C285.458 0.538086 285.547 0.408203 285.725 0.408203L292.615 0.408203C292.793 0.408203 292.882 0.53125 292.882 0.777344C292.882 1.00977 292.848 1.15332 292.779 1.20801C292.725 1.24902 292.643 1.29687 292.533 1.35156C292.424 1.39258 292.28 1.50195 292.103 1.67969C291.938 1.84375 291.761 2.1582 291.569 2.62305C291.378 3.07422 291.282 3.53223 291.282 3.99707V20.998C291.282 24.1562 292.253 26.6104 294.194 28.3604C296.149 30.0967 298.535 30.9648 301.352 30.9648C303.006 30.9648 304.558 30.5479 306.007 29.7139C307.47 28.8662 308.625 27.752 309.473 26.3711C310.334 24.9766 310.765 23.5 310.765 21.9414V3.99707C310.765 2.99902 310.437 2.17187 309.78 1.51562C309.726 1.46094 309.609 1.39258 309.432 1.31055C309.254 1.22852 309.165 1.05762 309.165 0.797852C309.165 0.538086 309.254 0.408203 309.432 0.408203H315.83C316.008 0.408203 316.097 0.53125 316.097 0.777344C316.097 1.00977 316.062 1.15332 315.994 1.20801C315.939 1.24902 315.857 1.29687 315.748 1.35156C315.639 1.39258 315.495 1.50195 315.317 1.67969C315.153 1.84375 314.976 2.1582 314.784 2.62305C314.593 3.07422 314.497 3.53223 314.497 3.99707V21.9414C314.497 24.293 313.889 26.4531 312.672 28.4219C311.469 30.3906 309.849 31.9355 307.812 33.0566C305.788 34.1777 303.539 34.7383 301.064 34.7383C298.604 34.7383 296.3 34.1641 294.153 33.0156C292.021 31.8672 290.312 30.2402 289.026 28.1348C287.741 26.0156 287.099 23.6367 287.099 20.998V3.99707ZM327.725 3.77148C327.438 3.77148 327.191 3.87402 326.986 4.0791C326.781 4.27051 326.679 4.50977 326.679 4.79687V30.4111C326.679 31.4092 327.007 32.2363 327.663 32.8926C327.718 32.9473 327.834 33.0156 328.012 33.0977C328.189 33.1797 328.278 33.3506 328.278 33.6104C328.278 33.8701 328.189 34 328.012 34H321.367C321.189 34 321.101 33.8838 321.101 33.6514C321.101 33.4053 321.128 33.2617 321.183 33.2207C321.251 33.166 321.34 33.1182 321.449 33.0771C321.559 33.0225 321.695 32.9131 321.859 32.749C322.037 32.5713 322.222 32.2568 322.413 31.8057C322.604 31.3408 322.7 30.876 322.7 30.4111V3.99707C322.7 2.99902 322.372 2.17187 321.716 1.51562C321.661 1.46094 321.545 1.39258 321.367 1.31055C321.189 1.22852 321.101 1.06445 321.101 0.818359C321.101 0.572266 321.189 0.449219 321.367 0.449219H331.888C334.896 0.476562 337.411 1.12598 339.435 2.39746C341.472 3.65527 342.49 5.70605 342.49 8.5498C342.49 11.8994 340.74 14.3535 337.24 15.9121C335.955 16.4863 334.978 16.8076 334.308 16.876C333.638 16.9307 333.303 16.9785 333.303 17.0195L333.959 17.3887C334.232 17.5527 334.793 17.9697 335.641 18.6396C336.488 19.3096 337.329 20.0684 338.163 20.916C338.997 21.75 339.988 22.9121 341.137 24.4023C342.285 25.8926 343.133 27.1094 343.68 28.0527L345.361 31.0469C345.977 32.168 346.489 32.7832 346.899 32.8926C347.31 33.002 347.515 33.2139 347.515 33.5283C347.515 33.8428 347.426 34 347.248 34H340.604C340.426 34 340.337 33.8838 340.337 33.6514C340.337 33.4053 340.364 33.2617 340.419 33.2207C340.487 33.166 340.576 33.1182 340.686 33.0771C340.795 33.0225 340.884 32.9541 340.952 32.8721C341.034 32.79 341.068 32.6328 341.055 32.4004C341.055 32.1543 341.027 31.9629 340.973 31.8262C339.975 29.2559 338.614 26.8086 336.892 24.4844C333.692 20.1641 330.938 17.8398 328.627 17.5117C328.299 17.457 328.135 17.4229 328.135 17.4092C328.107 17.1631 328.094 16.8281 328.094 16.4043V15.1533C328.094 15.0166 328.162 14.9482 328.299 14.9482C331.662 14.9482 334.287 14.2715 336.174 12.918C337.623 11.8926 338.348 10.5117 338.348 8.77539C338.348 7.03906 337.65 5.77441 336.256 4.98145C334.861 4.1748 333.282 3.77148 331.519 3.77148H327.725ZM350.386 30.8623C350.386 30.8623 354.884 20.793 363.88 0.654297C363.948 0.490234 364.283 0.408203 364.885 0.408203C365.486 0.408203 365.828 0.490234 365.91 0.654297L379.814 30.8623C380.348 32.1064 380.874 32.8516 381.394 33.0977C381.571 33.1797 381.66 33.3506 381.66 33.6104C381.66 33.8701 381.571 34 381.394 34H373.97C373.792 34 373.703 33.8838 373.703 33.6514C373.703 33.4053 373.73 33.2617 373.785 33.2207C373.854 33.166 373.942 33.1182 374.052 33.0771C374.161 33.0225 374.25 32.9609 374.318 32.8926C374.838 32.373 375.098 31.8945 375.098 31.457C375.098 31.0059 375.05 30.6367 374.954 30.3496L371.98 23.3154H357.194L354.282 30.3496C354.187 30.6367 354.139 30.8555 354.139 31.0059V31.2314C354.139 31.2451 354.139 31.2588 354.139 31.2725C354.139 31.833 354.398 32.373 354.918 32.8926C354.973 32.9473 355.089 33.0156 355.267 33.0977C355.444 33.1797 355.533 33.3506 355.533 33.6104C355.533 33.8701 355.444 34 355.267 34H348.807C348.629 34 348.54 33.8838 348.54 33.6514C348.54 33.4053 348.567 33.2617 348.622 33.2207C348.69 33.166 348.779 33.1113 348.889 33.0566C349.34 32.8652 349.839 32.1338 350.386 30.8623ZM358.65 20.0547C358.623 20.0957 358.616 20.1504 358.63 20.2187C358.644 20.2734 358.671 20.3008 358.712 20.3008H370.422C370.463 20.3008 370.49 20.2734 370.504 20.2187C370.518 20.1504 370.511 20.0957 370.483 20.0547L364.557 7.17578H364.413L358.65 20.0547Z" fill="white"/>
</svg>
