<svg width="311" height="75" viewBox="0 0 311 75" fill="none" xmlns="http://www.w3.org/2000/svg">
<path d="M36.77 46.28C36.77 45.2133 36.7433 44.1733 36.69 43.16C36.69 42.1467 36.7167 41.1333 36.77 40.12C36.8233 38.6267 36.85 37.16 36.85 35.72C36.9033 34.28 36.9833 32.8133 37.09 31.32C37.1433 30.4667 37.17 29.6133 37.17 28.76C37.2233 27.9067 37.3033 27.0533 37.41 26.2C37.57 24.4933 37.73 22.8133 37.89 21.16C38.05 19.4533 38.21 17.7467 38.37 16.04C38.4233 15.4533 38.45 14.9467 38.45 14.52C38.5033 14.04 38.53 13.72 38.53 13.56C38.4233 13.6133 38.1567 13.72 37.73 13.88C37.3033 14.04 36.7967 14.2267 36.21 14.44C34.0767 15.1867 31.97 16.0133 29.89 16.92C27.8633 17.7733 25.8367 18.7333 23.81 19.8C23.65 19.9067 23.4633 20.0133 23.25 20.12C23.09 20.1733 22.93 20.2533 22.77 20.36C22.5567 20.4667 22.45 20.52 22.45 20.52C22.45 20.52 22.4233 20.5467 22.37 20.6C22.1033 22.4133 21.73 24.3333 21.25 26.36C20.77 28.3867 20.21 30.2533 19.57 31.96C18.8767 33.7733 18.05 35.5067 17.09 37.16C16.1833 38.76 15.0367 40.2533 13.65 41.64C12.7433 42.5467 11.7833 43.3733 10.77 44.12C9.75667 44.8667 8.58333 45.4533 7.25 45.88C6.55667 46.0933 5.89 46.2267 5.25 46.28C4.55667 46.3333 3.83667 46.28 3.09 46.12C2.34333 45.9067 1.75667 45.5333 1.33 45C0.85 44.4133 0.556666 43.7467 0.45 43C0.343333 42.0933 0.423333 41.24 0.69 40.44C0.903333 39.5867 1.19667 38.76 1.57 37.96C2.05 36.84 2.63667 35.7733 3.33 34.76C4.02333 33.7467 4.77 32.7867 5.57 31.88C6.63667 30.7067 7.73 29.5867 8.85 28.52C9.97 27.4 11.17 26.3867 12.45 25.48C14.69 23.88 16.93 22.36 19.17 20.92C19.33 20.8133 19.49 20.7067 19.65 20.6C19.8633 20.44 20.0233 20.3067 20.13 20.2C20.29 20.0933 20.4233 19.9867 20.53 19.88C20.6367 18.9733 20.7167 18.12 20.77 17.32C20.8233 16.6267 20.85 15.9333 20.85 15.24C20.9033 14.4933 20.9567 13.88 21.01 13.4C21.1167 12.4933 21.1433 11.6133 21.09 10.76C21.09 9.85333 21.09 8.94666 21.09 8.04C21.1433 7.13333 21.1167 6.25333 21.01 5.4C20.9567 4.54666 20.7967 3.69333 20.53 2.84C20.4233 2.62666 20.3433 2.46666 20.29 2.36C20.29 2.25333 20.1567 2.33333 19.89 2.6C19.57 2.97333 19.2767 2.97333 19.01 2.6C18.85 2.33333 18.8233 2.04 18.93 1.72C19.1433 1.13333 19.57 0.813332 20.21 0.759999C20.9033 0.706663 21.4367 0.919996 21.81 1.4C22.0767 1.82666 22.29 2.28 22.45 2.76C22.61 3.24 22.7433 3.72 22.85 4.2C23.1167 5.90666 23.2233 7.61333 23.17 9.32C23.1167 11.0267 23.09 12.7333 23.09 14.44C23.09 14.92 23.0367 15.4 22.93 15.88C22.8767 16.3067 22.8233 16.76 22.77 17.24V18.76C23.1967 18.6 23.6233 18.3867 24.05 18.12C26.1833 17.0533 28.3433 16.0933 30.53 15.24C32.7167 14.3333 34.93 13.5067 37.17 12.76C40.21 11.7467 43.33 10.8133 46.53 9.96C49.7833 9.10666 52.9033 8.38666 55.89 7.8C57.5967 7.48 59.2767 7.16 60.93 6.84C62.6367 6.52 64.3433 6.22667 66.05 5.96C67.4367 5.69333 68.8233 5.53333 70.21 5.48C71.65 5.42666 73.09 5.42666 74.53 5.48C74.85 5.53333 75.17 5.61333 75.49 5.72C75.8633 5.77333 76.21 5.88 76.53 6.04C77.0633 6.25333 77.3033 6.54666 77.25 6.92C77.25 7.29333 77.0367 7.61333 76.61 7.88C76.1833 8.14666 75.7567 8.28 75.33 8.28C74.9567 8.28 74.5567 8.25333 74.13 8.2C73.7033 8.09333 73.4633 7.96 73.41 7.8C73.3567 7.64 73.57 7.53333 74.05 7.48H74.61C75.25 7.26666 75.4367 7.08 75.17 6.92C74.9033 6.70666 74.7167 6.57333 74.61 6.52C73.7033 6.36 72.77 6.30667 71.81 6.36C70.85 6.41333 69.9167 6.49333 69.01 6.6C68.1033 6.70666 67.17 6.84 66.21 7C65.3033 7.16 64.3967 7.32 63.49 7.48C62.21 7.74667 60.9033 7.98667 59.57 8.2C58.29 8.36 57.01 8.6 55.73 8.92C53.5433 9.45333 51.41 9.98666 49.33 10.52C47.25 11.0533 45.1433 11.6133 43.01 12.2C42.69 12.3067 42.2633 12.44 41.73 12.6C41.1967 12.7067 40.77 12.8133 40.45 12.92V13.72C40.3433 14.84 40.2633 15.96 40.21 17.08C40.21 18.2 40.1567 19.32 40.05 20.44C39.9433 22.1467 39.8367 23.8267 39.73 25.48C39.6233 27.1333 39.5167 28.8133 39.41 30.52C39.3033 31.4267 39.2233 32.3067 39.17 33.16C39.17 34.0133 39.1433 34.8933 39.09 35.8C38.9833 37.2933 38.9033 38.76 38.85 40.2C38.7967 41.64 38.7433 43.1067 38.69 44.6C38.6367 45.88 38.5833 47.16 38.53 48.44C38.4767 49.6667 38.45 50.92 38.45 52.2C38.45 52.8933 38.4767 53.56 38.53 54.2C38.6367 54.84 38.7433 55.48 38.85 56.12C39.01 57.3467 39.5433 58.4933 40.45 59.56C40.5033 59.6133 40.53 59.6667 40.53 59.72C40.53 59.7733 40.5567 59.8533 40.61 59.96C40.5033 59.96 40.3433 60.0133 40.13 60.12C39.5433 60.12 39.09 59.96 38.77 59.64C37.9167 58.7867 37.33 57.7467 37.01 56.52C36.7433 55.3467 36.6367 54.2 36.69 53.08C36.7433 51.9067 36.7433 50.7333 36.69 49.56V46.28H36.77ZM2.21 41.72C2.21 43.16 2.61 44.2 3.41 44.84C4.15667 45.4267 5.14333 45.5067 6.37 45.08C7.43667 44.6533 8.39667 44.12 9.25 43.48C10.1033 42.7867 10.9033 42.04 11.65 41.24C13.5167 39.2667 15.01 37.1067 16.13 34.76C16.93 33.1067 17.5967 31.4267 18.13 29.72C18.6633 27.96 19.1167 26.1733 19.49 24.36C19.5433 24.0933 19.57 23.88 19.57 23.72C19.6233 23.5067 19.6767 23.2933 19.73 23.08C19.8367 22.76 19.89 22.4133 19.89 22.04C19.7833 22.0933 19.65 22.1733 19.49 22.28C19.33 22.3867 19.1967 22.4667 19.09 22.52C18.8767 22.6267 18.69 22.76 18.53 22.92C17.3033 23.7733 16.0767 24.6533 14.85 25.56C13.6233 26.4133 12.45 27.3467 11.33 28.36C8.45 30.8133 6.07667 33.56 4.21 36.6C3.14333 38.36 2.47667 40.0667 2.21 41.72ZM54.6994 54.76C54.4327 54.76 54.0327 54.7333 53.4994 54.68C53.0194 54.6267 52.5127 54.52 51.9794 54.36C51.4994 54.1467 51.046 53.8533 50.6194 53.48C50.1927 53.1067 49.8994 52.6 49.7394 51.96C49.5794 51.2133 49.5794 50.3067 49.7394 49.24C49.8994 48.1733 50.326 47.1067 51.0194 46.04C53.366 42.3067 55.846 39.9867 58.4594 39.08C59.2594 38.76 60.1127 38.6 61.0194 38.6C62.406 38.6 63.606 39 64.6194 39.8C65.6327 40.6 66.2727 41.6933 66.5394 43.08C66.6994 43.72 66.6727 44.3333 66.4594 44.92C66.2994 45.5067 66.086 46.0933 65.8194 46.68L65.4994 47.48C65.3394 47.8 65.1794 48.0933 65.0194 48.36C64.8594 48.5733 64.726 48.8133 64.6194 49.08C64.886 49.24 65.1794 49.3733 65.4994 49.48C65.8727 49.5333 66.246 49.5867 66.6194 49.64C68.1127 49.9067 69.6327 50.04 71.1794 50.04C73.3127 50.04 75.0994 49.8533 76.5394 49.48L78.2994 49C79.846 48.5733 81.206 48.2 82.3794 47.88C83.606 47.5067 85.0194 46.9467 86.6194 46.2C87.0994 45.9867 87.4727 45.88 87.7394 45.88C87.8994 45.9867 87.8994 46.1733 87.7394 46.44C87.6327 46.6533 87.3394 46.8933 86.8594 47.16C85.3127 47.96 82.3527 48.92 77.9794 50.04C75.366 50.7333 72.9127 51.08 70.6194 51.08C70.1394 51.08 69.526 51.0533 68.7794 51C68.0327 50.8933 67.2594 50.8133 66.4594 50.76C65.7127 50.6533 65.0194 50.5733 64.3794 50.52C63.7927 50.4133 63.4194 50.3333 63.2594 50.28C62.3527 51.1867 61.2594 52.0667 59.9794 52.92C58.6994 53.7733 57.3927 54.3333 56.0594 54.6C55.8994 54.7067 55.686 54.76 55.4194 54.76C55.206 54.76 54.966 54.76 54.6994 54.76ZM54.4594 46.04C54.1394 46.2533 53.846 46.52 53.5794 46.84C53.366 47.16 53.206 47.4533 53.0994 47.72C52.9394 48.0933 52.806 48.44 52.6994 48.76C52.646 49.08 52.5927 49.3467 52.5394 49.56L52.4594 49.88C52.2994 51.3733 52.486 52.4133 53.0194 53C53.3927 53.48 53.926 53.72 54.6194 53.72C55.1527 53.72 55.7394 53.56 56.3794 53.24C57.126 52.8667 57.7927 52.44 58.3794 51.96C58.966 51.48 59.5527 51 60.1394 50.52C60.3527 50.36 60.5394 50.2267 60.6994 50.12C60.8594 49.96 60.9927 49.8267 61.0994 49.72C60.9394 49.72 60.6994 49.6667 60.3794 49.56C60.1127 49.4 59.8994 49.2667 59.7394 49.16L58.9394 48.84C58.2994 48.5733 57.6327 48.2533 56.9394 47.88C56.2994 47.5067 55.7394 47.0267 55.2594 46.44L54.6994 45.88L54.4594 46.04ZM61.2594 40.2C60.8327 40.2 60.2994 40.3333 59.6594 40.6C58.2727 41.2933 57.286 42.4667 56.6994 44.12C56.5927 44.28 56.6727 44.5733 56.9394 45C57.2594 45.3733 57.5527 45.7467 57.8194 46.12C58.9394 47.2933 60.2194 48.0933 61.6594 48.52L61.9794 48.6L62.1394 48.36C63.046 47.1333 63.6594 45.9333 63.9794 44.76L64.0594 44.36C64.1127 43.72 64.086 43.1867 63.9794 42.76C63.8727 42.3333 63.5794 41.8267 63.0994 41.24C62.5127 40.5467 61.8994 40.2 61.2594 40.2ZM88.8025 74.28C88.5892 74.28 88.3225 74.0133 88.0025 73.48C88.0025 73.48 88.0025 73.3467 88.0025 73.08V72.6L87.6025 66.36L87.3625 62.36C87.2558 61.08 87.1758 59.8 87.1225 58.52C87.0692 57.2933 86.9892 56.04 86.8825 54.76C86.8825 54.44 86.8558 53.64 86.8025 52.36C86.7492 51.0267 86.6958 49.6133 86.6425 48.12C86.6425 46.5733 86.6425 45.1333 86.6425 43.8C86.6958 42.4667 86.7758 41.6133 86.8825 41.24C86.9892 40.9733 87.1758 40.7867 87.4425 40.68C87.7092 40.52 87.9758 40.44 88.2425 40.44C88.7225 40.44 89.0958 40.6 89.3625 40.92C89.5225 41.08 89.6558 41.3733 89.7625 41.8C89.9758 42.3867 90.1092 42.8933 90.1625 43.32L90.5625 44.92L91.5225 43.4C91.6825 43.1333 91.8425 42.8667 92.0025 42.6C92.1625 42.3333 92.2958 42.0667 92.4025 41.8C92.8292 40.8933 93.3358 40.0133 93.9225 39.16C94.5625 38.2533 95.3358 37.48 96.2425 36.84C97.3092 36.0933 98.3758 35.72 99.4425 35.72C100.403 35.72 101.283 36.0133 102.083 36.6C102.883 37.1333 103.496 37.88 103.923 38.84C105.043 41.1867 105.229 43.6667 104.483 46.28C104.269 47.1333 104.083 47.8267 103.923 48.36C103.816 48.8933 103.709 49.32 103.603 49.64C103.869 49.8 104.349 50.04 105.043 50.36C105.789 50.6267 106.696 50.92 107.763 51.24C109.256 51.6667 110.856 52.04 112.563 52.36C114.269 52.6267 116.056 52.76 117.923 52.76C118.243 52.76 118.643 52.76 119.123 52.76C119.603 52.7067 120.003 52.68 120.323 52.68C122.563 52.4667 124.563 51.9067 126.323 51C128.083 50.0933 129.923 49.0267 131.843 47.8C132.216 47.5333 132.563 47.2933 132.883 47.08C133.256 46.8667 133.629 46.6533 134.003 46.44C134.429 46.1733 134.669 46.2267 134.723 46.6C134.829 46.92 134.616 47.2667 134.083 47.64C133.336 48.12 132.509 48.6533 131.603 49.24C130.696 49.8267 129.736 50.4133 128.723 51C127.709 51.5333 126.696 52.0133 125.683 52.44C124.669 52.8667 123.709 53.16 122.803 53.32C122.056 53.4267 121.309 53.5333 120.563 53.64C119.869 53.6933 119.149 53.72 118.403 53.72C117.443 53.72 116.483 53.6667 115.523 53.56C114.616 53.4533 113.629 53.3467 112.563 53.24C111.443 53.08 110.296 52.8667 109.123 52.6C108.003 52.28 106.909 51.96 105.843 51.64L104.723 51.32C104.563 51.2667 104.296 51.2133 103.923 51.16C103.549 51.0533 103.256 51 103.043 51C102.669 51.64 102.029 52.4667 101.123 53.48C100.269 54.4933 99.3892 55.2933 98.4825 55.88C97.6825 56.4667 96.9092 56.8933 96.1625 57.16C95.4692 57.48 94.5358 57.6933 93.3625 57.8C92.3492 57.8 91.5225 57.64 90.8825 57.32C90.2958 57.0533 89.6825 56.68 89.0425 56.2C89.0958 56.7867 89.1225 57.2133 89.1225 57.48C89.1225 57.7467 89.1225 57.9333 89.1225 58.04L89.6025 64.28C89.6558 64.5467 89.6825 64.8133 89.6825 65.08C89.6825 65.3467 89.7092 65.6133 89.7625 65.88C89.8158 66.4667 89.8692 67.0267 89.9225 67.56C89.9758 68.1467 90.0025 68.7333 90.0025 69.32C90.0025 70.0133 89.9492 70.7333 89.8425 71.48C89.7892 72.2267 89.7092 72.9733 89.6025 73.72C89.5492 73.8267 89.4158 73.9333 89.2025 74.04C89.0425 74.2 88.9092 74.28 88.8025 74.28ZM96.6425 49.8C95.2558 50.0667 94.0825 50.5467 93.1225 51.24C92.2158 51.9333 91.5492 52.9733 91.1225 54.36C90.9092 55.2133 91.0158 55.88 91.4425 56.36C91.7092 56.7867 92.0825 57 92.5625 57C93.3625 57 94.1625 56.84 94.9625 56.52C95.8158 56.2 96.5892 55.8 97.2825 55.32C98.0292 54.7867 98.6958 54.2 99.2825 53.56C99.8692 52.8667 100.323 52.1733 100.643 51.48C100.749 51.2133 100.909 50.9467 101.123 50.68C101.336 50.4133 101.389 50.2533 101.283 50.2C101.016 50.0933 100.536 49.9867 99.8425 49.88L98.1625 49.72L96.6425 49.8ZM99.3625 36.36C98.8825 36.36 98.3758 36.6 97.8425 37.08C95.9758 38.8933 94.5092 40.76 93.4425 42.68C92.4292 44.6 91.5492 46.84 90.8025 49.4C90.7492 49.5067 90.6958 49.6933 90.6425 49.96C90.6425 50.1733 90.6158 50.4133 90.5625 50.68C90.5092 50.8933 90.4825 51.1067 90.4825 51.32C90.4825 51.5333 90.5092 51.6667 90.5625 51.72C92.3225 50.44 93.8425 49.6667 95.1225 49.4C96.4025 49.08 97.5225 48.92 98.4825 48.92C99.2292 48.92 99.7892 48.9733 100.163 49.08C100.589 49.1333 101.096 49.1867 101.683 49.24C101.843 48.8667 101.949 48.5733 102.003 48.36C102.109 48.1467 102.216 47.8533 102.323 47.48C102.803 45.8267 102.963 43.9867 102.803 41.96C102.749 40.2 102.163 38.6533 101.043 37.32C100.829 37.0533 100.589 36.84 100.323 36.68C100.056 36.4667 99.7358 36.36 99.3625 36.36ZM170.958 57.32C168.398 57.32 165.944 56.7333 163.598 55.56C161.358 54.44 160.104 52.4933 159.838 49.72C159.731 49.4 159.678 49.1333 159.678 48.92L159.518 48.04L158.638 48.52C158.531 48.6267 158.398 48.7333 158.238 48.84C158.078 48.8933 157.944 48.9733 157.838 49.08C156.824 49.9867 155.971 50.9733 155.278 52.04C154.584 53.0533 153.944 54.0933 153.358 55.16C152.984 55.8 152.424 56.12 151.678 56.12C151.144 56.12 150.824 56.0667 150.718 55.96C150.611 55.8533 150.558 55.56 150.558 55.08V48.6V46.36L150.638 45.96V44.2C150.638 43.56 150.638 42.92 150.638 42.28C150.638 41.5867 150.611 40.8933 150.558 40.2C150.504 38.5467 150.344 36.76 150.078 34.84C150.024 34.52 149.891 34.2 149.678 33.88C149.464 33.5067 149.144 33.32 148.718 33.32C148.291 33.32 147.838 33.5867 147.358 34.12C144.264 37.5333 142.424 41.2933 141.838 45.4C141.678 46.68 141.518 47.9867 141.358 49.32C141.198 50.6 140.984 51.88 140.718 53.16C140.558 54.0667 140.291 54.7067 139.918 55.08C139.598 55.4533 139.064 55.64 138.318 55.64C137.998 55.64 137.784 55.6133 137.678 55.56C136.718 55.4533 136.078 55.08 135.758 54.44C135.171 53.3733 134.664 52.3067 134.238 51.24C133.864 50.12 133.624 49.0267 133.518 47.96C133.304 46.6267 133.224 45.6133 133.277 44.92C133.277 44.1733 133.331 43.7467 133.438 43.64C133.704 43.3733 133.918 43.2133 134.078 43.16C134.291 43.1067 134.611 43.0533 135.038 43L135.358 42.92H135.678C135.944 42.92 136.104 42.9733 136.158 43.08C136.318 43.24 136.344 43.48 136.238 43.8C136.131 44.2267 136.104 44.8133 136.158 45.56C136.264 46.2533 136.371 46.9733 136.478 47.72C136.638 48.4667 136.798 49.16 136.958 49.8C137.118 50.3867 137.224 50.76 137.278 50.92C137.331 51.1333 137.438 51.3467 137.598 51.56L138.158 52.92L138.478 51.8C138.531 51.5333 138.558 51.3467 138.558 51.24C138.611 51.1333 138.638 51.0267 138.638 50.92L139.038 48.84C139.144 48.1467 139.251 47.48 139.358 46.84C139.518 46.2 139.651 45.5333 139.758 44.84C140.718 39.9333 142.958 35.8533 146.478 32.6C147.384 31.6933 148.424 31.24 149.598 31.24C150.451 31.24 151.144 31.4533 151.678 31.88C152.211 32.2533 152.531 32.76 152.638 33.4C152.851 34.3067 153.011 35.16 153.118 35.96C153.224 36.76 153.278 37.56 153.278 38.36C153.224 39.6933 153.171 41 153.118 42.28C153.118 43.56 153.064 44.84 152.958 46.12C152.904 46.7067 152.878 47.32 152.878 47.96C152.878 48.5467 152.851 49.1333 152.798 49.72C152.798 49.8267 152.798 49.9333 152.798 50.04C152.851 50.1467 152.878 50.2533 152.878 50.36V52.36C153.144 51.9867 153.411 51.6133 153.678 51.24C153.944 50.92 154.211 50.5733 154.478 50.2C154.798 49.7733 155.144 49.4 155.518 49.08C155.784 48.8133 156.051 48.5467 156.318 48.28C156.638 48.0133 156.878 47.8 157.038 47.64C157.678 47 158.344 46.52 159.038 46.2C159.678 45.9333 160.211 45.8 160.638 45.8C161.704 45.8 162.318 46.6267 162.478 48.28C162.691 53.2933 165.464 55.9867 170.798 56.36C170.904 56.36 171.011 56.3867 171.118 56.44C171.224 56.44 171.331 56.44 171.438 56.44C172.504 56.44 173.491 56.28 174.398 55.96C175.358 55.64 176.318 55.2667 177.278 54.84C178.824 54.2 180.371 53.2933 181.918 52.12C183.518 50.9467 185.064 49.7467 186.558 48.52C187.144 48.0933 187.678 47.6667 188.158 47.24C188.691 46.8133 189.224 46.4133 189.758 46.04C189.971 45.9333 190.131 45.88 190.238 45.88C190.611 46.3067 190.451 46.9467 189.758 47.8C189.598 48.0133 188.958 48.5467 187.838 49.4C186.718 50.2533 185.411 51.1867 183.918 52.2C182.424 53.16 180.851 54.0933 179.198 55C177.544 55.9067 176.104 56.52 174.878 56.84C173.491 57.16 172.184 57.32 170.958 57.32ZM193.059 54.76C192.792 54.76 192.392 54.7333 191.859 54.68C191.379 54.6267 190.872 54.52 190.339 54.36C189.859 54.1467 189.405 53.8533 188.979 53.48C188.552 53.1067 188.259 52.6 188.099 51.96C187.939 51.2133 187.939 50.3067 188.099 49.24C188.259 48.1733 188.685 47.1067 189.379 46.04C191.725 42.3067 194.205 39.9867 196.819 39.08C197.619 38.76 198.472 38.6 199.379 38.6C200.765 38.6 201.965 39 202.979 39.8C203.992 40.6 204.632 41.6933 204.899 43.08C205.059 43.72 205.032 44.3333 204.819 44.92C204.659 45.5067 204.445 46.0933 204.179 46.68L203.859 47.48C203.699 47.8 203.539 48.0933 203.379 48.36C203.219 48.5733 203.085 48.8133 202.979 49.08C203.245 49.24 203.539 49.3733 203.859 49.48C204.232 49.5333 204.605 49.5867 204.979 49.64C206.472 49.9067 207.992 50.04 209.539 50.04C211.672 50.04 213.459 49.8533 214.899 49.48L216.659 49C218.205 48.5733 219.565 48.2 220.739 47.88C221.965 47.5067 223.379 46.9467 224.979 46.2C225.459 45.9867 225.832 45.88 226.099 45.88C226.259 45.9867 226.259 46.1733 226.099 46.44C225.992 46.6533 225.699 46.8933 225.219 47.16C223.672 47.96 220.712 48.92 216.339 50.04C213.725 50.7333 211.272 51.08 208.979 51.08C208.499 51.08 207.885 51.0533 207.139 51C206.392 50.8933 205.619 50.8133 204.819 50.76C204.072 50.6533 203.379 50.5733 202.739 50.52C202.152 50.4133 201.779 50.3333 201.619 50.28C200.712 51.1867 199.619 52.0667 198.339 52.92C197.059 53.7733 195.752 54.3333 194.419 54.6C194.259 54.7067 194.045 54.76 193.779 54.76C193.565 54.76 193.325 54.76 193.059 54.76ZM192.819 46.04C192.499 46.2533 192.205 46.52 191.939 46.84C191.725 47.16 191.565 47.4533 191.459 47.72C191.299 48.0933 191.165 48.44 191.059 48.76C191.005 49.08 190.952 49.3467 190.899 49.56L190.819 49.88C190.659 51.3733 190.845 52.4133 191.379 53C191.752 53.48 192.285 53.72 192.979 53.72C193.512 53.72 194.099 53.56 194.739 53.24C195.485 52.8667 196.152 52.44 196.739 51.96C197.325 51.48 197.912 51 198.499 50.52C198.712 50.36 198.899 50.2267 199.059 50.12C199.219 49.96 199.352 49.8267 199.459 49.72C199.299 49.72 199.059 49.6667 198.739 49.56C198.472 49.4 198.259 49.2667 198.099 49.16L197.299 48.84C196.659 48.5733 195.992 48.2533 195.299 47.88C194.659 47.5067 194.099 47.0267 193.619 46.44L193.059 45.88L192.819 46.04ZM199.619 40.2C199.192 40.2 198.659 40.3333 198.019 40.6C196.632 41.2933 195.645 42.4667 195.059 44.12C194.952 44.28 195.032 44.5733 195.299 45C195.619 45.3733 195.912 45.7467 196.179 46.12C197.299 47.2933 198.579 48.0933 200.019 48.52L200.339 48.6L200.499 48.36C201.405 47.1333 202.019 45.9333 202.339 44.76L202.419 44.36C202.472 43.72 202.445 43.1867 202.339 42.76C202.232 42.3333 201.939 41.8267 201.459 41.24C200.872 40.5467 200.259 40.2 199.619 40.2ZM223.242 66.76C222.549 66.7067 221.802 66.4133 221.002 65.88C220.149 65.4 219.642 64.8133 219.482 64.12C219.375 63.7467 219.429 63.2933 219.642 62.76C219.802 62.28 220.042 61.8 220.362 61.32C220.682 60.8933 221.002 60.52 221.322 60.2C221.642 59.88 221.935 59.6667 222.202 59.56C222.895 59.2933 223.722 59.08 224.682 58.92C225.589 58.76 226.549 58.6 227.562 58.44C228.042 58.3867 228.602 58.3067 229.242 58.2C229.935 58.0933 230.602 57.9867 231.242 57.88C231.935 57.7733 232.575 57.6667 233.162 57.56C233.749 57.4533 234.202 57.3467 234.522 57.24C234.469 56.8133 234.255 56.3333 233.882 55.8C233.562 55.2133 233.135 54.6533 232.602 54.12C232.069 53.5333 231.509 53 230.922 52.52C230.389 52.04 229.882 51.64 229.402 51.32L228.922 51C228.602 50.84 228.202 50.6 227.722 50.28C227.242 49.96 226.789 49.5867 226.362 49.16C225.935 48.7333 225.589 48.2533 225.322 47.72C225.055 47.1867 224.922 46.6 224.922 45.96C225.029 44.04 225.482 42.68 226.282 41.88C227.082 41.08 228.095 40.68 229.322 40.68C230.282 40.68 231.135 40.8667 231.882 41.24C232.895 41.6667 233.535 42.1467 233.802 42.68C234.069 43.2133 234.175 43.9067 234.122 44.76C234.069 45.1867 233.989 45.4533 233.882 45.56C233.775 45.6133 233.615 45.64 233.402 45.64H233.002C232.362 45.64 232.015 45.4533 231.962 45.08C231.855 44.6533 231.722 44.2533 231.562 43.88C231.455 43.4533 231.295 43.0267 231.082 42.6C230.709 42.0667 230.335 41.8 229.962 41.8C229.589 41.8 229.215 41.9867 228.842 42.36C227.669 43.3733 227.135 44.4667 227.242 45.64C227.295 46.8133 227.989 47.88 229.322 48.84C230.495 49.64 231.695 50.5733 232.922 51.64C234.149 52.6533 235.162 53.9067 235.962 55.4L236.682 56.92C236.735 57.0267 237.002 57.0267 237.482 56.92C237.962 56.76 238.255 56.68 238.362 56.68C240.122 56.2533 242.362 55.6133 245.082 54.76C247.802 53.9067 250.602 52.9467 253.482 51.88C256.362 50.8133 259.109 49.6933 261.722 48.52C264.389 47.2933 266.495 46.0933 268.042 44.92L268.442 45C268.602 45.2667 268.549 45.5867 268.282 45.96C267.695 46.6 266.522 47.3733 264.762 48.28C263.002 49.1867 261.082 50.0933 259.002 51C256.922 51.8533 254.869 52.6267 252.842 53.32C250.869 54.0133 249.349 54.4933 248.282 54.76C247.535 54.9733 246.789 55.1867 246.042 55.4C245.349 55.6133 244.629 55.8267 243.882 56.04C242.975 56.36 241.855 56.68 240.522 57C239.189 57.3733 238.015 57.6667 237.002 57.88C236.895 58.1467 236.815 58.3333 236.762 58.44C236.762 58.5467 236.709 58.7333 236.602 59C235.962 60.3333 235.109 61.5067 234.042 62.52C233.029 63.5333 231.909 64.36 230.682 65C229.509 65.64 228.255 66.12 226.922 66.44C225.642 66.76 224.415 66.8667 223.242 66.76ZM224.922 60.12C224.709 60.2267 224.415 60.3333 224.042 60.44C223.669 60.6 223.322 60.8133 223.002 61.08C222.629 61.4 222.335 61.7733 222.122 62.2C221.909 62.68 221.829 63.2667 221.882 63.96C221.935 64.5467 222.175 65 222.602 65.32C223.029 65.64 223.535 65.8 224.122 65.8C224.762 65.8 225.509 65.6133 226.362 65.24C227.269 64.92 228.175 64.4933 229.082 63.96C230.042 63.48 230.895 62.9467 231.642 62.36C232.442 61.7733 233.055 61.2667 233.482 60.84C233.642 60.68 233.882 60.3067 234.202 59.72C234.575 59.1333 234.789 58.5733 234.842 58.04C233.189 58.2533 231.455 58.5467 229.642 58.92C227.882 59.2933 226.309 59.6933 224.922 60.12ZM280.069 56.76C278.149 56.76 276.363 56.5733 274.709 56.2C270.603 55.24 268.229 52.84 267.589 49C267.483 48.2533 267.456 46.92 267.509 45C267.616 43.0267 268.069 40.52 268.869 37.48C268.976 37.2133 269.029 36.9733 269.029 36.76C269.083 36.4933 269.163 36.1467 269.269 35.72C269.003 35.6667 268.656 35.64 268.229 35.64C267.803 35.5867 267.376 35.56 266.949 35.56H259.989L257.029 35.64C256.603 35.64 256.176 35.64 255.749 35.64C255.323 35.64 254.896 35.6133 254.469 35.56C253.883 35.56 253.243 35.48 252.549 35.32C252.496 35.32 252.389 35.24 252.229 35.08C252.283 35.08 252.336 35.08 252.389 35.08C252.389 35.0267 252.443 35 252.549 35C252.816 34.8933 253.083 34.84 253.349 34.84C253.616 34.84 253.883 34.84 254.149 34.84H254.389C255.083 34.7867 255.749 34.76 256.389 34.76C257.029 34.76 257.669 34.76 258.309 34.76L264.149 34.84H266.309C266.896 34.7867 267.483 34.7333 268.069 34.68C268.709 34.6267 269.216 34.6 269.589 34.6C269.643 34.6 269.723 34.36 269.829 33.88C269.989 33.3467 270.176 32.7867 270.389 32.2C270.603 31.5067 270.843 30.7067 271.109 29.8C271.483 28.84 271.856 27.88 272.229 26.92C272.603 25.96 273.003 25.0267 273.429 24.12C273.696 23.5333 274.096 23.08 274.629 22.76C275.216 22.3867 275.883 22.2 276.629 22.2C277.376 22.2 278.016 22.4133 278.549 22.84C278.976 23.2667 279.269 23.9333 279.429 24.84C279.589 25.9067 279.509 26.92 279.189 27.88C278.869 28.7867 278.496 29.6933 278.069 30.6C277.963 30.8133 277.803 31.1067 277.589 31.48C277.429 31.8533 277.243 32.2533 277.029 32.68C276.816 33.16 276.576 33.6933 276.309 34.28L277.989 34.2C278.416 34.2 278.816 34.2 279.189 34.2C279.563 34.2 279.936 34.1733 280.309 34.12C282.709 33.8533 285.083 33.5867 287.429 33.32C289.829 33.0533 292.229 32.7867 294.629 32.52L301.109 31.64L307.269 30.76H308.389H309.269H309.989C310.469 30.76 310.709 30.84 310.709 31C310.709 31.1067 310.629 31.2133 310.469 31.32C310.309 31.4267 310.043 31.5067 309.669 31.56C308.763 31.72 307.909 31.8 307.109 31.8C306.576 31.9067 306.043 31.9867 305.509 32.04C305.029 32.04 304.523 32.0667 303.989 32.12L296.789 33.08L286.309 34.36C284.869 34.52 283.429 34.6533 281.989 34.76C280.603 34.8667 279.216 34.9467 277.829 35C277.083 35 276.549 35.0267 276.229 35.08C275.909 35.1333 275.643 35.2133 275.429 35.32C275.109 35.5333 274.656 35.96 274.069 36.6C273.536 37.24 272.976 38.04 272.389 39C271.856 39.9067 271.376 40.9467 270.949 42.12C270.523 43.24 270.283 44.3867 270.229 45.56C270.176 46.4667 270.229 47.3733 270.389 48.28C270.603 49.1333 270.789 49.8533 270.949 50.44C271.749 53.5333 273.936 55.2933 277.509 55.72C277.989 55.7733 278.469 55.8267 278.949 55.88C279.429 55.88 279.909 55.88 280.389 55.88C282.576 55.88 284.763 55.56 286.949 54.92C289.456 54.1733 291.803 53.2667 293.989 52.2C296.229 51.08 298.283 49.9867 300.149 48.92C300.576 48.6533 300.976 48.4133 301.349 48.2C301.776 47.9333 302.203 47.6667 302.629 47.4L303.989 46.52C304.576 46.2 304.976 46.04 305.189 46.04C305.403 46.04 305.509 46.12 305.509 46.28C305.563 46.44 305.536 46.6267 305.429 46.84C305.323 47 305.243 47.08 305.189 47.08C304.443 47.6667 303.749 48.2 303.109 48.68C302.469 49.1067 301.776 49.56 301.029 50.04C296.976 52.44 293.163 54.1733 289.589 55.24C286.229 56.2533 283.056 56.76 280.069 56.76ZM276.709 23.24C276.283 23.24 275.963 23.4533 275.749 23.88L272.629 33.24C272.523 33.4533 272.469 33.64 272.469 33.8C272.523 33.96 272.496 34.1733 272.389 34.44L273.189 34.52H273.429C273.856 34.52 274.149 34.3867 274.309 34.12C274.736 33.48 275.163 32.6533 275.589 31.64C276.016 30.5733 276.389 29.5333 276.709 28.52C277.029 27.4533 277.269 26.52 277.429 25.72C277.643 24.8667 277.723 24.36 277.669 24.2C277.563 23.72 277.296 23.4267 276.869 23.32L276.709 23.24Z" fill="#131416"/>
</svg>
