<svg width="143" height="95" viewBox="0 0 143 95" fill="none" xmlns="http://www.w3.org/2000/svg">
<path d="M106.909 94.2C100.643 94.2 95.1094 92.5333 90.3094 89.2C85.5094 85.8667 81.7094 81.4667 78.9094 76C76.2427 70.4 74.9094 64.2667 74.9094 57.6C74.9094 46.5333 78.576 35.8667 85.9094 25.6C93.376 15.2 103.443 6.73333 116.109 0.19999L142.909 14.8C134.776 18.8 127.776 23.4667 121.909 28.8C116.043 34 112.043 40.1333 109.909 47.2C116.709 48 122.309 50.3333 126.709 54.2C131.243 57.9333 133.509 63.0667 133.509 69.6C133.509 76.2667 131.043 82.0667 126.109 87C121.309 91.8 114.909 94.2 106.909 94.2ZM32.5094 94.2C26.2427 94.2 20.7094 92.5333 15.9094 89.2C11.1094 85.8667 7.30938 81.4667 4.50938 76C1.84271 70.4 0.509376 64.2667 0.509376 57.6C0.509376 46.5333 4.17604 35.8667 11.5094 25.6C18.976 15.2 29.0427 6.73333 41.7094 0.19999L68.5094 14.8C60.376 18.8 53.376 23.4667 47.5094 28.8C41.6427 34 37.6427 40.1333 35.5094 47.2C42.3094 48 47.9094 50.3333 52.3094 54.2C56.8427 57.9333 59.1094 63.0667 59.1094 69.6C59.1094 76.2667 56.6427 82.0667 51.7094 87C46.9094 91.8 40.5094 94.2 32.5094 94.2Z" fill="#CCCCCC" fill-opacity="0.3"/>
</svg>
